<?xml version="1.0" encoding="iso-8859-1"?>
<!-- Generator: Adobe Illustrator 19.0.0, SVG Export Plug-In . SVG Version: 6.00 Build 0)  -->
<svg xmlns="http://www.w3.org/2000/svg" xmlns:xlink="http://www.w3.org/1999/xlink" version="1.1" id="Layer_1" x="0px" y="0px" viewBox="0 0 512 512" style="enable-background:new 0 0 512 512;" xml:space="preserve" width="512px" height="512px">
<g>
	<g>
		<path d="M172.275,46.545H79.068c-17.934,0-32.523,14.616-32.523,32.582c0,17.966,14.589,32.582,32.523,32.582h93.207    c17.934,0,32.525-14.616,32.525-32.582C204.8,61.161,190.209,46.545,172.275,46.545z M172.275,93.091H79.068    c-7.666,0-13.905-6.264-13.905-13.964s6.239-13.964,13.905-13.964h93.207c7.668,0,13.907,6.264,13.907,13.964    S179.943,93.091,172.275,93.091z" fill="#FFFFFF"/>
	</g>
</g>
<g>
	<g>
		<path d="M172.275,139.636H79.068c-17.934,0-32.523,14.616-32.523,32.582c0,17.966,14.589,32.582,32.523,32.582h93.207    c17.934,0,32.525-14.616,32.525-32.582C204.8,154.252,190.209,139.636,172.275,139.636z M172.275,186.182H79.068    c-7.666,0-13.905-6.264-13.905-13.964s6.239-13.964,13.905-13.964h93.207c7.668,0,13.907,6.264,13.907,13.964    S179.943,186.182,172.275,186.182z" fill="#FFFFFF"/>
	</g>
</g>
<g>
	<g>
		<path d="M502.691,148.945H251.345V18.618c0-5.141-4.168-9.309-9.309-9.309H9.309C4.168,9.309,0,13.477,0,18.618v214.109v260.655    c0,5.141,4.168,9.309,9.309,9.309h65.164c5.141,0,9.309-4.168,9.309-9.309V386.334c0-28.235,22.968-51.207,51.2-51.207    c28.232,0,51.2,22.972,51.2,51.207v107.048c0,5.141,4.168,9.309,9.309,9.309h121.018c5.141,0,9.309-4.168,9.309-9.309V386.334    c0-28.235,22.968-51.207,51.2-51.207s51.2,22.972,51.2,51.207v107.048c0,5.141,4.168,9.309,9.309,9.309h65.164    c5.141,0,9.309-4.168,9.309-9.309V232.727v-74.473C512,153.114,507.832,148.945,502.691,148.945z M437.527,167.564h18.618v55.854    h-18.618V167.564z M400.291,167.564h18.618v55.854h-18.618V167.564z M363.055,167.564h18.618v55.854h-18.618V167.564z     M325.818,167.564h18.618v55.854h-18.618V167.564z M288.582,167.564H307.2v55.854h-18.618V167.564z M251.345,167.564h18.618    v55.854h-18.618V167.564z M18.618,27.927h214.109v130.327v65.164H18.618V27.927z M493.382,484.073h-46.545v-97.739    c0-38.501-31.32-69.825-69.818-69.825S307.2,347.833,307.2,386.334v97.739H204.8v-97.739c0-38.501-31.32-69.825-69.818-69.825    s-69.818,31.324-69.818,69.825v97.739H18.618V242.036h223.418h251.345V484.073z M493.382,223.418h-18.618v-55.854h18.618V223.418z    " fill="#FFFFFF"/>
	</g>
</g>
<g>
</g>
<g>
</g>
<g>
</g>
<g>
</g>
<g>
</g>
<g>
</g>
<g>
</g>
<g>
</g>
<g>
</g>
<g>
</g>
<g>
</g>
<g>
</g>
<g>
</g>
<g>
</g>
<g>
</g>
</svg>
