<?xml version="1.0" encoding="iso-8859-1"?>
<!-- Generator: Adobe Illustrator 16.0.0, SVG Export Plug-In . SVG Version: 6.00 Build 0)  -->
<!DOCTYPE svg PUBLIC "-//W3C//DTD SVG 1.1//EN" "http://www.w3.org/Graphics/SVG/1.1/DTD/svg11.dtd">
<svg xmlns="http://www.w3.org/2000/svg" xmlns:xlink="http://www.w3.org/1999/xlink" version="1.1" id="Capa_1" x="0px" y="0px" width="512px" height="512px" viewBox="0 0 37.332 37.333" style="enable-background:new 0 0 37.332 37.333;" xml:space="preserve">
<g>
	<path d="M31.113,18.89h-0.016c-0.021,0.019-0.045,0.027-0.08,0.027l-1.902,1.781l-0.055,2.537l-0.58,0.58   c-0.021,0.018-0.056,0.025-0.107,0.025c-0.07,0-0.123-0.021-0.154-0.066s-0.057-0.094-0.074-0.148l-0.352-1.401   c-0.008-0.045-0.031-0.076-0.066-0.095c-0.037-0.02-0.067-0.026-0.095-0.026c-0.091,0-0.161,0.033-0.216,0.103   c-0.055,0.065-0.104,0.125-0.148,0.168c-0.151,0.129-0.342,0.188-0.565,0.188c-0.207,0-0.312-0.098-0.312-0.297   c0-0.098,0.017-0.197,0.047-0.297c0.031-0.098,0.078-0.184,0.144-0.256l0.229-0.256c0-0.011,0.004-0.019,0.015-0.027   c0.01-0.008,0.015-0.018,0.015-0.027c0.026-0.025,0.04-0.055,0.04-0.078c0-0.037-0.021-0.07-0.055-0.104   c-0.035-0.031-0.072-0.051-0.106-0.061l-1.443-0.353c-0.101-0.035-0.148-0.111-0.148-0.229v-0.015c0-0.011,0.007-0.03,0.016-0.067   l0.556-0.554c0.018-0.01,0.043-0.021,0.071-0.041c0.03-0.019,0.054-0.026,0.062-0.026h2.35c0.008,0,0.027-0.006,0.062-0.021   c0.03-0.015,0.051-0.028,0.062-0.047l1.739-1.864c0.021-0.018,0.026-0.049,0.026-0.094c0-0.09-0.036-0.151-0.106-0.188   l-6.006-1.955c-0.045-0.011-0.067-0.035-0.073-0.076c-0.005-0.039-0.009-0.073-0.009-0.1v-0.068c0-0.026,0.011-0.049,0.026-0.067   l0.474-0.457c0.011-0.021,0.028-0.037,0.062-0.056c0.031-0.018,0.059-0.026,0.076-0.026h8.395l2.051-2.172   c0.146-0.154,0.326-0.271,0.549-0.353c0.221-0.08,0.434-0.121,0.641-0.121c0.136,0,0.261,0.029,0.371,0.088   c0.111,0.06,0.191,0.168,0.236,0.33v0.106v0.107c0,0.172-0.025,0.361-0.082,0.568c-0.055,0.207-0.146,0.369-0.281,0.484   l-2.213,2.119c-0.027,0.02-0.045,0.049-0.049,0.088c-0.006,0.041-0.008,0.069-0.008,0.088v8.017c0,0.021-0.004,0.066-0.016,0.146   c-0.008,0.082-0.014,0.131-0.014,0.146c0,0.021-0.009,0.039-0.021,0.062c-0.015,0.021-0.029,0.041-0.05,0.049l-0.431,0.445   c-0.063,0.045-0.112,0.064-0.149,0.064c-0.09,0-0.151-0.05-0.188-0.146l-1.943-5.91c-0.01-0.045-0.03-0.086-0.065-0.121   C31.199,18.907,31.156,18.89,31.113,18.89z" fill="#FFFFFF"/>
	<g>
		<path d="M10.978,20.145c0.354,0.209,0.815,0.35,1.338,0.35s0.984-0.141,1.338-0.35c0.203-0.121,0.382-0.264,0.488-0.426    c-0.303,0.203-0.724,0.354-1.205,0.426c-0.197,0.027-0.403,0.049-0.621,0.049c-0.217,0-0.422-0.021-0.621-0.049    c-0.48-0.07-0.899-0.223-1.207-0.426C10.597,19.886,10.774,20.024,10.978,20.145z" fill="#FFFFFF"/>
		<path d="M14.894,17.015c0.404,0,0.731-0.326,0.731-0.73c0-0.108-0.026-0.209-0.069-0.303c-0.115-0.252-0.367-0.43-0.662-0.43    c-0.297,0-0.549,0.178-0.664,0.43c-0.041,0.094-0.067,0.193-0.067,0.303C14.161,16.686,14.489,17.015,14.894,17.015z" fill="#FFFFFF"/>
		<path d="M9.737,17.015c0.406,0,0.732-0.326,0.732-0.73c0-0.108-0.025-0.209-0.068-0.303c-0.114-0.252-0.367-0.43-0.664-0.43    c-0.293,0-0.545,0.178-0.66,0.43c-0.043,0.094-0.07,0.193-0.07,0.303C9.007,16.686,9.337,17.015,9.737,17.015z" fill="#FFFFFF"/>
		<path d="M22.596,27.222c-0.271-2.238-1.255-4.257-2.72-5.817v-5.866c0-4.654-3.385-8.429-7.561-8.429    c-4.174,0-7.561,3.773-7.561,8.429v5.863c-1.466,1.563-2.447,3.582-2.72,5.82H0v3h37.332v-3H22.596z M5.854,15.418    c0.082,0.271,0.154,0.419,0.221,0.501c0.001,0.003,0.003,0.006,0.005,0.01l0.001-0.002c0.078,0.094,0.146,0.092,0.202,0.092    l0.26-0.057l-0.108-0.186c0.078-0.312,1.012-1.896,3.744-1.896c0.5,0,1.036,0.054,1.598,0.159c1.109,0.21,2.023-0.297,2.588-1.383    c0.031,0.178,0.189,1.059,0.471,1.455c0.699,0.982,1.822,0.869,2.08,0.793c0.204-0.062,0.375-0.149,0.521-0.258    c0.32,0.515,0.465,0.955,0.488,1.108L17.7,16.019h0.412c0.039,0,0.088,0,0.143-0.067l0.001,0.002    c0.015-0.017,0.028-0.036,0.038-0.062c0.061-0.112,0.125-0.316,0.189-0.697c0.377,0.16,0.639,0.633,0.639,1.188    c0,0.701-0.402,1.271-0.887,1.271c-0.002,0-0.002,0-0.002,0c-0.021-0.008-0.051-0.021-0.09-0.025l-0.156-0.021l-0.051,0.149    c-0.189,0.564-0.467,1.079-0.801,1.547c-0.621,0.868-1.467,1.543-2.438,1.969c-0.737,0.324-1.54,0.517-2.383,0.517    c-0.901,0-1.764-0.211-2.543-0.582c-0.903-0.431-1.688-1.08-2.274-1.902c-0.334-0.466-0.61-0.979-0.801-1.545l-0.052-0.152    l-0.158,0.025l-0.072,0.025c-0.496,0-0.9-0.57-0.9-1.271C5.515,15.998,5.64,15.649,5.854,15.418z M10.703,24.592L9.899,21.67    c0.752,0.312,1.565,0.5,2.416,0.5c0.789,0,1.547-0.164,2.254-0.436l-0.785,2.855l-0.723,2.631h-1.637L10.703,24.592z" fill="#FFFFFF"/>
	</g>
</g>
<g>
</g>
<g>
</g>
<g>
</g>
<g>
</g>
<g>
</g>
<g>
</g>
<g>
</g>
<g>
</g>
<g>
</g>
<g>
</g>
<g>
</g>
<g>
</g>
<g>
</g>
<g>
</g>
<g>
</g>
</svg>
